<svg width="60" height="61" viewBox="0 0 60 61" fill="none" xmlns="http://www.w3.org/2000/svg">
<rect y="0.165039" width="60" height="60" rx="8" fill="#8F5BFE"/>
<path d="M31.166 30L32.801 31.875L35.666 28.125M17.666 22.5H25.166V37.5H17.666C17.2682 37.5 16.8867 37.342 16.6054 37.0607C16.3241 36.7794 16.166 36.3978 16.166 36V24C16.166 23.6022 16.3241 23.2206 16.6054 22.9393C16.8867 22.658 17.2682 22.5 17.666 22.5V22.5ZM16.166 28.5H25.166H16.166ZM43.166 42V18C43.166 17.6022 43.008 17.2206 42.7267 16.9393C42.4454 16.658 42.0638 16.5 41.666 16.5H26.666C26.2682 16.5 25.8867 16.658 25.6054 16.9393C25.3241 17.2206 25.166 17.6022 25.166 18V42C25.166 42.3978 25.3241 42.7794 25.6054 43.0607C25.8867 43.342 26.2682 43.5 26.666 43.5H41.666C42.0638 43.5 42.4454 43.342 42.7267 43.0607C43.008 42.7794 43.166 42.3978 43.166 42ZM31.916 19.5H36.416L37.166 16.5H31.166L31.916 19.5Z" stroke="white" stroke-width="2" stroke-linecap="round" stroke-linejoin="round"/>
</svg>
