<svg width="61" height="61" viewBox="0 0 61 61" fill="none" xmlns="http://www.w3.org/2000/svg">
<rect x="0.5" y="0.165039" width="60" height="60" rx="8" fill="#8F5BFE"/>
<path d="M40.25 21.3333V37.0417C40.25 37.76 39.9647 38.4488 39.4567 38.9567C38.9488 39.4647 38.26 39.75 37.5417 39.75C36.8234 39.75 36.1345 39.4647 35.6266 38.9567C35.1187 38.4488 34.8333 37.76 34.8333 37.0417V34.3333H22.9167V21.3333C22.9167 21.046 23.0308 20.7705 23.234 20.5673C23.4371 20.3641 23.7127 20.25 24 20.25H39.1667C39.454 20.25 39.7295 20.3641 39.9327 20.5673C40.1359 20.7705 40.25 21.046 40.25 21.3333ZM34.8333 37.0417V34.3333H20.75V37.0417C20.75 37.76 21.0353 38.4488 21.5433 38.9567C22.0512 39.4647 22.74 39.75 23.4583 39.75H37.5417C36.8234 39.75 36.1345 39.4647 35.6266 38.9567C35.1187 38.4488 34.8333 37.76 34.8333 37.0417Z" stroke="white" stroke-width="2" stroke-linecap="round" stroke-linejoin="round"/>
<path d="M28.334 27.8332L30.5007 29.9998L34.834 25.6665" stroke="white" stroke-width="2" stroke-linecap="round" stroke-linejoin="round"/>
</svg>
