<svg width="60" height="61" viewBox="0 0 60 61" fill="none" xmlns="http://www.w3.org/2000/svg">
<rect y="0.165039" width="60" height="60" rx="8" fill="#8F5BFE"/>
<path d="M39.334 36H40.834C41.2318 36 41.6133 35.842 41.8946 35.5607C42.176 35.2794 42.334 34.8978 42.334 34.5V16.5H18.334V34.5" stroke="white" stroke-width="2" stroke-linecap="round" stroke-linejoin="round"/>
<path d="M24.334 24H36.334M16.834 16.5H43.834H16.834ZM25.579 39.18L21.334 43.5L25.579 39.18ZM33.334 36C33.334 36.89 33.0701 37.76 32.5756 38.5001C32.0811 39.2401 31.3783 39.8169 30.5561 40.1575C29.7338 40.4981 28.829 40.5872 27.9561 40.4135C27.0832 40.2399 26.2813 39.8113 25.652 39.182C25.0227 38.5526 24.5941 37.7508 24.4205 36.8779C24.2468 36.005 24.3359 35.1002 24.6765 34.2779C25.0171 33.4557 25.5939 32.7529 26.3339 32.2584C27.0739 31.7639 27.944 31.5 28.834 31.5C30.0275 31.5 31.1721 31.9741 32.016 32.818C32.8599 33.6619 33.334 34.8065 33.334 36V36Z" stroke="white" stroke-width="2" stroke-linecap="round" stroke-linejoin="round"/>
</svg>
