<svg width="60" height="61" viewBox="0 0 60 61" fill="none" xmlns="http://www.w3.org/2000/svg">
<rect y="0.165039" width="60" height="60" rx="8" fill="#8F5BFE"/>
<path d="M24 16.5H42C42.3978 16.5 42.7794 16.658 43.0607 16.9393C43.342 17.2206 43.5 17.6022 43.5 18V42C43.5 42.3978 43.342 42.7794 43.0607 43.0607C42.7794 43.342 42.3978 43.5 42 43.5H24C23.6022 43.5 23.2206 43.342 22.9393 43.0607C22.658 42.7794 22.5 42.3978 22.5 42V37.5" stroke="white" stroke-width="2" stroke-linecap="round" stroke-linejoin="round"/>
<path d="M37.5 30V37.5V30ZM31.5 37.5V34.5V37.5ZM16.5 34.5L20.745 30.255L16.5 34.5ZM24 22.5C23.11 22.5 22.24 22.7639 21.4999 23.2584C20.7599 23.7529 20.1831 24.4557 19.8425 25.2779C19.5019 26.1002 19.4128 27.005 19.5865 27.8779C19.7601 28.7508 20.1887 29.5526 20.818 30.182C21.4474 30.8113 22.2492 31.2399 23.1221 31.4135C23.995 31.5872 24.8998 31.4981 25.7221 31.1575C26.5443 30.8169 27.2471 30.2401 27.7416 29.5001C28.2361 28.76 28.5 27.89 28.5 27C28.5 25.8065 28.0259 24.6619 27.182 23.818C26.3381 22.9741 25.1935 22.5 24 22.5Z" stroke="white" stroke-width="2" stroke-linecap="round" stroke-linejoin="round"/>
</svg>
