<svg width="60" height="61" viewBox="0 0 60 61" fill="none" xmlns="http://www.w3.org/2000/svg">
<rect y="0.165039" width="60" height="60" rx="8" fill="#8F5BFE"/>
<path fill-rule="evenodd" clip-rule="evenodd" d="M17.7175 17.7637C17.7149 17.7693 17.7146 17.7721 17.7146 17.7753V29.7713L17.7155 29.7747C17.7189 29.7835 17.7266 29.7976 17.74 29.8126C17.7534 29.8276 17.7665 29.8369 17.7747 29.8413L17.7771 29.8425L17.8043 29.8459C20.2477 30.1773 22.5568 31.0944 24.5444 32.4985V21.2218C22.7155 19.3764 20.3507 18.1473 17.7803 17.7144C17.7783 17.7144 17.7759 17.7149 17.7726 17.7159C17.765 17.7183 17.7531 17.724 17.7407 17.7348C17.7283 17.7456 17.721 17.7565 17.7175 17.7637ZM27.9206 35.673C27.4979 35.9386 26.7987 36.2987 26.0009 36.3093L25.9643 36.3096C25.2496 36.3094 24.6214 36.0263 24.2092 35.7908C23.8147 35.5653 23.4778 35.3018 23.2482 35.0905C21.5605 33.8064 19.5601 32.9698 17.4342 32.679C15.9865 32.5077 14.8513 31.2269 14.8574 29.7678L14.8575 29.7627L16.286 29.7713H14.8574V29.7678V17.7755C14.8574 16.014 16.4416 14.6388 18.1851 14.8857L18.2187 14.8909C21.1188 15.3722 23.8077 16.6774 25.9722 18.6357C28.1366 16.6774 30.8254 15.3722 33.7255 14.8909L33.7591 14.8857C35.5026 14.6388 37.0869 16.0139 37.0867 17.7754V21.8902C37.0867 22.6792 36.4472 23.3188 35.6582 23.3188C34.8692 23.3188 34.2296 22.6792 34.2296 21.8902V17.7754C34.2296 17.7722 34.2293 17.7693 34.2267 17.7637C34.2232 17.7565 34.2159 17.7456 34.2035 17.7348C34.1911 17.724 34.1792 17.7183 34.1716 17.7159C34.1683 17.7149 34.1659 17.7144 34.1639 17.7144C31.5943 18.1472 29.2301 19.3757 27.4015 21.2202V33.0552C27.7878 33.1214 28.1454 33.3454 28.3703 33.7033C28.79 34.3714 28.5887 35.2532 27.9206 35.673ZM30.9528 28.5556C30.9528 26.7585 32.4097 25.3017 34.2068 25.3017C36.0039 25.3017 37.4609 26.7585 37.4609 28.5556V33.4286H37.8337C41.7127 33.4286 44.8577 36.5734 44.8577 40.4526V43.7144C44.8577 44.0174 44.7372 44.3082 44.5228 44.5226C44.3084 44.7368 44.0179 44.8572 43.7148 44.8572H30.5084C30.1692 44.8572 29.8475 44.7066 29.6304 44.446L28.3792 42.9445C26.1593 40.2808 27.602 36.2384 30.9528 35.5436V28.5556Z" fill="white"/>
</svg>
