<svg width="60" height="61" viewBox="0 0 60 61" fill="none" xmlns="http://www.w3.org/2000/svg">
<rect y="0.165039" width="60" height="60" rx="8" fill="#8F5BFE"/>
<g clip-path="url(#clip0_571_266)">
<path fill-rule="evenodd" clip-rule="evenodd" d="M31.4286 21.7143V28.0005C31.4286 28.7895 30.789 29.4291 30 29.4291C29.211 29.4291 28.5714 28.7895 28.5714 28.0005V21.7148C28.5714 19.0323 26.3968 16.8577 23.7143 16.8577H16.8571V36.2863H25.7143C26.5033 36.2863 27.1429 36.9259 27.1429 37.7147C27.1429 38.5038 26.5033 39.1433 25.7143 39.1433H15.4286C14.6396 39.1433 14 38.5038 14 37.7147V15.4291C14 14.6402 14.6396 14.0006 15.4286 14.0006H23.7143C26.3071 14.0006 28.6011 15.2797 29.9998 17.2414C31.3984 15.2794 33.6927 14 36.2857 14H44.5714C45.3605 14 46 14.6396 46 15.4286V28.8577C46 29.6467 45.3605 30.2863 44.5714 30.2863C43.7824 30.2863 43.1429 29.6467 43.1429 28.8577V16.8571H36.2857C33.6032 16.8571 31.4286 19.0318 31.4286 21.7143ZM36.5714 32.2863C34.2045 32.2863 32.2857 34.2051 32.2857 36.572C32.2857 38.939 34.2045 40.8576 36.5714 40.8576C38.9383 40.8576 40.8571 38.939 40.8571 36.572C40.8571 34.2051 38.9383 32.2863 36.5714 32.2863ZM29.4286 36.572C29.4286 32.6271 32.6265 29.4291 36.5714 29.4291C40.5163 29.4291 43.7143 32.6271 43.7143 36.572C43.7143 38.0279 43.2789 39.3819 42.531 40.5111L45.5806 43.5607C46.1385 44.1186 46.1385 45.0231 45.5806 45.581C45.0226 46.139 44.1182 46.139 43.5602 45.581L40.5106 42.5314C39.3813 43.2793 38.0272 43.7147 36.5714 43.7147C32.6265 43.7147 29.4286 40.5168 29.4286 36.572Z" fill="white"/>
</g>
<defs>
<clipPath id="clip0_571_266">
<rect width="32" height="32" fill="white" transform="translate(14 14)"/>
</clipPath>
</defs>
</svg>
