<svg width="53" height="49" viewBox="0 0 53 49" fill="none" xmlns="http://www.w3.org/2000/svg">
<path d="M21.8682 37.7724L0 0H13.8647C15.6584 0 17.3187 0.947834 18.2306 2.4925L30.5607 23.3782C32.814 26.6174 39.1515 28.4482 43.5173 23.8007L34.3697 38.0579C31.4092 42.6719 24.615 42.5168 21.8682 37.7724Z" fill="#8F5BFE"/>
<path d="M40.3622 0.0816916L33.7219 6.66833C33.5433 6.84544 33.6688 7.14997 33.9202 7.14997H44.8997C45.0553 7.14997 45.1814 7.27608 45.1814 7.43164V17.9138C45.1814 18.1642 45.4836 18.2901 45.6614 18.1138L52.3063 11.5226C52.3596 11.4697 52.3896 11.3977 52.3896 11.3226V0.281666C52.3896 0.126106 52.2635 0 52.1079 0H40.5605C40.4862 0 40.4149 0.0293625 40.3622 0.0816916Z" fill="#F05186"/>
</svg>
